<svg xmlns="http://www.w3.org/2000/svg" version="1.1" xmlns:xlink="http://www.w3.org/1999/xlink" xmlns:svgjs="http://svgjs.dev/svgjs" width="100%" height="100%" viewBox="0 0 1000 600"><rect width="1000" height="600" x="0" y="0" fill="#555ff5"/><g><circle r="166.66666666666666" cx="322.98070780436194" cy="345.20297004083625" fill="#ffffff" transform="matrix(0.7996722664980583,0,0,0.7996722664980583,0,23.950792877859143)"/><path d="M234.26695657348185 408.7185507188007L234.26695657348185 408.7185507188007Q234.26695657348185 420.20296749895994 211.8926104700187 420.20296749895994L211.8926104700187 420.20296749895994Q207.02862218665712 420.20296749895994 206.13689100137418 415.2308905870792Q205.27218197322102 410.2858358323283 205.27218197322102 401.71981202218603L205.27218197322102 401.71981202218603Q205.27218197322102 384.9930967588482 214.02736088327183 352.1071315318982Q222.78253979332263 319.22116630494804 231.72687380328193 299.3869029716848L231.72687380328193 299.3869029716848Q210.91981281334637 299.76521317150184 200.59734878976798 307.54759442488034L200.59734878976798 307.54759442488034Q197.48980071984252 309.89852209517176 195.5442054064979 311.73602877999724Q193.5986100931533 313.57353546482267 192.13941360814482 313.57353546482267Q190.68021712313634 313.57353546482267 189.30208710951723 311.3577185801802Q187.95097925302792 309.11487953840793 187.95097925302792 306.0073314684825L187.95097925302792 306.0073314684825Q187.95097925302792 295.3065572450871 197.48980071984252 289.4697713050532L197.48980071984252 289.4697713050532Q211.1089679132549 281.28205769472794 236.21255188682647 278.55281982461946L236.21255188682647 278.55281982461946Q247.2916363100389 277.3908670680387 256.42512541990675 277.3908670680387L256.42512541990675 277.3908670680387L256.83045777685356 277.3908670680387Q258.18156563334287 277.3908670680387 260.61355977502365 278.9581521815663Q263.0455539167044 280.4984151379641 263.0455539167044 284.01129556483636Q263.0455539167044 287.5241759917086 261.7755125316045 291.901765446734Q260.5324933036343 296.27935490175935 258.37072073325135 298.41410531501253L258.37072073325135 298.41410531501253Q257.2087679766705 307.7367495247888 253.3175773499813 320.7884514184757Q249.42638672329204 333.81313115503275 245.15688589678578 348.59425110502593L245.15688589678578 348.59425110502593Q234.26695657348185 386.7495369722843 234.26695657348185 408.7185507188007ZM330.3577473270024 371.3739295654359L330.3577473270024 371.3739295654359Q333.6814726539661 371.3739295654359 333.6814726539661 380.3182635753952L333.6814726539661 380.3182635753952Q333.6814726539661 385.18225185875673 329.6011269273684 392.09992408398205Q325.49375904364086 398.9905741520776 318.98141917536236 404.7462936207221Q312.4690793070838 410.4749909322368 304.4975429537968 414.1770264590176Q296.5260066005098 417.87906198579833 289.31109064685677 417.87906198579833Q282.1231968503336 417.87906198579833 278.0428511237359 415.14982411568985Q273.93548324000835 412.4205862455815 271.6115777268467 407.7457530621284L271.6115777268467 407.7457530621284Q268.3148745570128 401.12532456533074 266.15310198662985 382.5611026171674Q264.0183515733767 363.96985851187435 261.8836011601236 356.59280961544266L261.8836011601236 356.59280961544266Q256.83045777685356 355.62001195877036 253.02033362155365 352.5935303602343Q249.23723162338354 349.56704876169823 249.23723162338354 345.1894593066728Q249.23723162338354 340.81186985164743 253.23651087859193 338.8662745383028Q257.2087679766705 336.9206792249582 262.2619113599406 336.9206792249582Q267.34207690034043 336.9206792249582 271.2332675270297 339.2716068952496L271.2332675270297 339.2716068952496Q281.71786449338686 327.9763452149989 290.2838883035291 309.6823448381335L290.2838883035291 309.6823448381335Q294.1750789302184 301.33249828502943 297.7690258284799 292.4692307464595Q301.3899948838714 283.63298536501935 305.2811855105606 274.28331899811326L305.2811855105606 274.28331899811326Q306.25398316723295 271.9594134849516 309.44259770854774 271.4730146566154Q312.6582344069923 270.9866158282793 317.92755504730064 270.9866158282793Q323.1698535304792 270.9866158282793 325.30460394373233 274.3914076266324Q327.43935435698546 277.7961994249855 327.43935435698546 285.4704920498448Q327.43935435698546 293.14478467470417 323.35900863038773 303.08893849846555Q319.27866290378995 313.0060701650972 312.84738950690075 322.32871437487347L312.84738950690075 322.32871437487347Q299.4443995705267 342.000844765358 281.93404175042514 351.91797643198964L281.93404175042514 351.91797643198964Q285.04158982035057 358.32222767174903 286.9871851336952 366.0235424537382Q288.9327804470398 373.6978350785975 290.68922066047594 380.210174946876Q292.4186387167823 386.7495369722843 294.6614777585545 391.12712642730975Q296.9043168003268 395.5047158823352 300.2010199701607 395.5047158823352Q303.52474529712447 395.5047158823352 308.09148985205843 391.69459172703523Q312.6582344069923 387.91148972886515 317.1439124905369 383.4258116453206Q321.6025684169516 378.9671557189059 325.22353747234297 375.157031563606Q328.8174843706046 371.3739295654359 330.3577473270024 371.3739295654359ZM439.1219297743928 385.7767393156121L439.1219297743928 385.7767393156121Q444.17507315766295 382.0747037888313 448.2824410413905 376.7243166771336Q452.36278676798815 371.3739295654359 455.173091109486 371.3739295654359Q458.01041760811347 371.3739295654359 458.01041760811347 379.831864747059Q458.01041760811347 388.28979992868216 453.2274957961414 395.774937453633Q448.47159614129885 403.2870971357137 440.68921488792046 408.3402405189837L440.68921488792046 408.3402405189837Q424.71912002421664 418.85185964247063 402.9392613776088 418.85185964247063L402.9392613776088 418.85185964247063Q376.48456954754784 418.85185964247063 361.8926046974632 405.6110026488753Q347.30063984737853 392.37014565527994 347.30063984737853 368.83384679523596L347.30063984737853 368.83384679523596Q347.30063984737853 339.8390721949751 361.2981172406079 313.789712721861L361.2981172406079 313.789712721861Q365.9729504240609 305.2236889117187 371.8097363640948 298.0087729580657L371.8097363640948 298.0087729580657Q367.3240582805502 292.76647447488716 364.7029090389609 287.0377771633724Q362.08175979737166 281.28205769472794 362.08175979737166 278.363664724711L362.08175979737166 278.363664724711Q362.08175979737166 273.1213662415324 365.9729504240609 273.1213662415324L365.9729504240609 273.1213662415324Q368.70218829416933 273.3105213414409 372.1880465639118 276.82340176831315L372.1880465639118 276.82340176831315L378.24100976098396 282.66018770834705Q380.5649152741456 284.98409322150866 383.1049980443455 286.55137833503625L383.1049980443455 286.55137833503625Q402.3447739207535 270.2029732715155 424.6380535528273 270.2029732715155Q446.9043110277713 270.2029732715155 453.524739524569 282.66018770834705L453.524739524569 282.66018770834705Q455.84864503773065 287.30799873467026 455.84864503773065 294.11758233137647L455.84864503773065 294.11758233137647Q455.84864503773065 304.4400463549549 446.9043110277713 311.43878505156954Q437.959977017812 318.4375237481843 422.88161333939115 318.4375237481843Q407.8032496609703 318.4375237481843 391.643999697358 312.22242760833336L391.643999697358 312.22242760833336Q377.83567740403714 335.75872646837735 377.83567740403714 361.45679789880427L377.83567740403714 361.45679789880427Q377.83567740403714 397.04497883873296 406.2359645474427 397.04497883873296L406.2359645474427 397.04497883873296Q423.7463223675444 397.04497883873296 439.1219297743928 385.7767393156121ZM400.9936660642642 300.17054552844866L400.9936660642642 300.17054552844866Q410.91079773089575 303.46724869828256 422.58436961096345 303.46724869828256Q434.25794149103126 303.46724869828256 434.25794149103126 297.0359753013934L434.25794149103126 297.0359753013934Q434.25794149103126 289.4697713050532 424.71912002421664 289.4697713050532L424.71912002421664 289.4697713050532Q411.6944402876595 289.4697713050532 400.9936660642642 300.17054552844866Z " fill="#555ff5" transform="matrix(0.7996722664980583,0,0,0.7996722664980583,0,23.950792877859143)"/><path d="M607.6489864307418 373.8841977176897L607.6489864307418 373.8841977176897Q607.6489864307418 382.4804756103473 590.901414442223 382.4804756103473L590.901414442223 382.4804756103473Q587.2606379229796 382.4804756103473 586.5931622277851 378.758792946232Q585.9459130688085 375.0573368183347 585.9459130688085 368.645524837223L585.9459130688085 368.645524837223Q585.9459130688085 356.1252989182699 592.4993108034464 331.509604340942Q599.0527085380842 306.89390976361415 605.7476920262482 292.04763217958896L605.7476920262482 292.04763217958896Q590.1732591383743 292.3308036866413 582.4467223030915 298.1560461174304L582.4467223030915 298.1560461174304Q580.1206706380194 299.91575476839796 578.6643600303221 301.2911592312232Q577.2080494226248 302.6665636940484 576.1158164668518 302.6665636940484Q575.0235835110789 302.6665636940484 573.99203016396 301.0079877241709Q572.980703353059 299.32918521807545 572.980703353059 297.0031335530034L572.980703353059 297.0031335530034Q572.980703353059 288.9934252106683 580.1206706380194 284.6244933875764L580.1206706380194 284.6244933875764Q590.3148448919004 278.49585291351696 609.1052970384392 276.45297275549717L609.1052970384392 276.45297275549717Q617.3981768878265 275.58323169812235 624.2347461295166 275.58323169812235L624.2347461295166 275.58323169812235L624.5381441727868 275.58323169812235Q625.5494709836878 275.58323169812235 627.3698592433093 276.7563707987674Q629.190247502931 277.90928336319445 629.190247502931 280.53873307153674Q629.190247502931 283.1681827798791 628.2396003006841 286.44488164719803Q627.3091796346553 289.7215805145169 625.6910567372138 291.31947687574035L625.6910567372138 291.31947687574035Q624.821315679839 298.29763187095654 621.9086944644445 308.0670488642592Q618.9960732490499 317.81623932134386 615.800280526603 328.88015463259967L615.800280526603 328.88015463259967Q607.6489864307418 357.44002377244107 607.6489864307418 373.8841977176897ZM679.5745492220137 345.93112466438885L679.5745492220137 345.93112466438885Q682.06241317683 345.93112466438885 682.06241317683 352.6261081525528L682.06241317683 352.6261081525528Q682.06241317683 356.266884671796 679.0082062079092 361.4448779436086Q675.9337727027705 366.6026446792032 671.0591774742281 370.91089689364105Q666.1845822456858 375.1989225718608 660.2177540613704 377.9699580337293Q654.2509258770552 380.74099349559776 648.8504407068444 380.74099349559776Q643.4701820728517 380.74099349559776 640.4159751039309 378.6981133375779Q637.3415415987922 376.65523317955814 635.6020594840427 373.156042413841L635.6020594840427 373.156042413841Q633.1344220654445 368.20054104042663 631.516299168003 354.3049106586483Q629.9184028067796 340.3890537406519 628.3205064455562 334.86720935313303L628.3205064455562 334.86720935313303Q624.5381441727868 334.13905404928437 621.6862025660463 331.87368199286635Q618.8544874955237 329.60830993644834 618.8544874955237 326.33161106912945Q618.8544874955237 323.0549122018105 621.8480148557904 321.59860159411323Q624.821315679839 320.14229098641596 628.6036779526085 320.14229098641596Q632.4062667615958 320.14229098641596 635.3188879769904 321.9019996373835L635.3188879769904 321.9019996373835Q643.1667840295813 313.44730749825203 649.578596010693 299.7539424786538L649.578596010693 299.7539424786538Q652.4912172260877 293.5039427872863 655.181346543084 286.8696389077764Q657.8917023962985 280.25556156448454 660.804323611693 273.2571800330503L660.804323611693 273.2571800330503Q661.5324789155417 271.51769791830077 663.9192101892678 271.15362026637644Q666.326167999212 270.7895426144521 670.2703425617254 270.7895426144521Q674.194290588021 270.7895426144521 675.7921869492443 273.3380861779224Q677.3900833104677 275.88662974139265 677.3900833104677 281.63096602730974Q677.3900833104677 287.3753023132268 674.3358763415471 294.81866764145747Q671.2816693726263 302.24180643347006 666.4677537527381 309.21996142868625L666.4677537527381 309.21996142868625Q656.4353917886011 323.9448797954033 643.3285963193255 331.3680185874159L643.3285963193255 331.3680185874159Q645.6546479843976 336.16170767108616 647.1109585920949 341.9262704932213Q648.5672691997922 347.6706067791384 649.8819940539634 352.5452020076807Q651.1764923719165 357.44002377244107 652.855294878012 360.71672263975995Q654.5340973841074 363.9934215070789 657.0017348027056 363.9934215070789Q659.4895987575219 363.9934215070789 662.9078833783669 361.14147990033837Q666.326167999212 358.30976482981583 669.6837730114029 354.9521598176249Q673.0211514873758 351.6147813416519 675.7315073405903 348.7628397349113Q678.4216366575866 345.93112466438885 679.5745492220137 345.93112466438885ZM764.2023767582009 345.93112466438885L764.2023767582009 345.93112466438885Q766.8115999303252 345.93112466438885 766.8115999303252 352.6261081525528L766.8115999303252 352.6261081525528Q766.8115999303252 356.266884671796 763.7573929614045 361.4448779436086Q760.7031859924838 366.6026446792032 755.8285907639415 370.91089689364105Q750.9337689991811 375.1989225718608 744.9669408148658 377.9699580337293Q739.0001126305505 380.74099349559776 733.3164559532875 380.74099349559776L733.3164559532875 380.74099349559776Q725.6101456542226 380.74099349559776 722.9806959458803 367.1892142295257L722.9806959458803 367.1892142295257Q719.1983336731109 373.45944045711127 713.0696931990515 377.4642946282788Q706.96127926121 381.46914879944643 696.6861988624569 381.46914879944643Q686.4313449999217 381.46914879944643 680.1611187723363 375.0573368183347Q673.9111190809687 368.645524837223 674.0527048344948 359.46267739424286L674.0527048344948 359.46267739424286Q674.0527048344948 334.7053970633889 690.4968787797434 320.4456890296862L690.4968787797434 320.4456890296862Q697.4952603111776 314.4788608453709 703.542994640365 312.5775664408772Q709.5907289695524 310.6762720363835 716.2857124577163 310.6762720363835Q722.9806959458803 310.6762720363835 727.208042015446 313.0225502376736L727.208042015446 313.0225502376736Q729.2509221734658 308.7952041681079 731.8601453455901 308.7952041681079L731.8601453455901 308.7952041681079Q736.9572324725307 308.7952041681079 741.5486561940207 313.2248155998538Q746.1400799155108 317.67465356781776 746.1400799155108 321.59860159411323L746.1400799155108 321.59860159411323Q744.097199757491 326.4125172140015 740.1732517311955 333.10750070216545L740.1732517311955 333.10750070216545Q739.0001126305505 339.80248419032944 739.0001126305505 351.8979528487041Q739.0001126305505 363.9934215070789 742.0543195994712 363.9934215070789L742.0543195994712 363.9934215070789Q745.8366818722405 363.9934215070789 760.3997879492135 348.84374587978346L760.3997879492135 348.84374587978346Q763.0292376575559 345.93112466438885 764.2023767582009 345.93112466438885ZM695.4523801531578 354.6689883105726L695.4523801531578 354.6689883105726Q695.4523801531578 365.8744893753545 703.7654865387632 365.8744893753545L703.7654865387632 365.8744893753545Q712.644935938473 365.7329036218284 718.4701783692623 356.40847042532215L718.4701783692623 356.40847042532215Q720.513058527282 353.21267770287534 721.8075568452352 348.54034783651315L721.8075568452352 348.54034783651315Q721.8075568452352 332.2377596447907 724.7201780606298 320.58727478321237L724.7201780606298 320.58727478321237Q712.9281074455253 322.9133264482844 704.1902437993416 331.9545881377384Q695.4523801531578 340.97562329097445 695.4523801531578 354.6689883105726ZM798.7088475461395 369.6568516481239L798.7088475461395 369.6568516481239Q791.4272945076531 379.70944014847885 779.1902400957522 379.70944014847885L779.1902400957522 379.70944014847885Q769.2994638851414 379.70944014847885 763.3933153094802 375.56300022378514Q757.4871667338189 371.4165602990915 757.4871667338189 362.3752986096374L757.4871667338189 362.3752986096374Q757.4871667338189 358.5929363368681 758.5793996895919 355.3971436144212Q759.6716326453649 352.1811243557564 762.159496600181 347.5290210256123L762.159496600181 347.5290210256123L766.3868426697468 313.0225502376736Q770.8973602463648 309.5233594719565 778.6036705454296 309.5233594719565L778.6036705454296 309.5233594719565Q785.1570682800675 309.5233594719565 786.0470358736603 318.26122311814026L786.0470358736603 318.26122311814026Q786.3302073807125 320.87044629026457 786.3302073807125 324.45054320085376Q786.3302073807125 328.0104135752249 785.1570682800675 331.9545881377384L785.1570682800675 331.9545881377384Q779.3318258492783 352.03953860223027 779.4936381390224 358.89633438013834L779.4936381390224 358.89633438013834Q779.4936381390224 364.135007260605 785.6020520768639 364.135007260605Q791.7104660147053 364.135007260605 794.6230872300998 360.1908326980915Q797.5357084454945 356.266884671796 799.5785886035143 350.44164224100683L799.5785886035143 350.44164224100683Q803.3609508762836 334.28063980281047 806.6376497436025 323.7830675056592Q809.9143486109215 313.3057217447259 810.8043162045143 311.26284158670603L810.8043162045143 311.26284158670603Q812.2606268122115 307.76365082098897 816.3261605920331 307.6220650674628L816.3261605920331 307.6220650674628Q820.4119209080727 307.76365082098897 824.052697427316 313.38662788959795Q827.6934739465593 318.98937842198893 827.6934739465593 322.04358539090964L827.6934739465593 322.04358539090964Q827.390075903289 332.2377596447907 815.011435737862 373.45944045711127L815.011435737862 373.45944045711127Q824.4774546878944 366.0160751288807 833.8018878844007 355.2555578608951L833.8018878844007 355.2555578608951Q837.0179071430655 351.45296905190776 839.2023730546115 348.9044254884375Q841.3868389661574 346.3558819249672 842.6813372841107 346.3558819249672L842.6813372841107 346.3558819249672Q844.7242174421303 346.3558819249672 844.7242174421303 351.02821179132934L844.7242174421303 351.02821179132934Q844.7242174421303 360.1908326980915 834.4693635795953 372.42788710999235Q824.1942831808421 384.66494152189324 809.348005596817 391.5015107635833L809.348005596817 391.5015107635833Q807.5882969458494 397.3267531943725 805.5454167878296 402.5856526110572Q803.5227631660277 407.82432549152384 800.3067439073629 411.74827351781926L800.3067439073629 411.74827351781926Q793.3285889121468 420.2029656569508 779.0486543422261 420.2029656569508L779.0486543422261 420.2029656569508Q769.4410496386674 420.2029656569508 762.6651600056315 414.66089473321387Q755.8892703725955 409.13905034569495 755.8892703725955 400.8259439600896L755.8892703725955 400.8259439600896Q755.8892703725955 396.17384062994546 759.0243834863883 393.402805168077Q762.159496600181 390.63176970620856 767.6206613790459 388.8113814465869Q773.0818261579108 386.9909931869653 780.3633791963972 385.6155887241401Q787.6449322348838 384.21995772509683 795.9378120842711 382.19730410329504L795.9378120842711 382.19730410329504Q797.9806922422908 373.45944045711127 798.7088475461395 369.6568516481239ZM778.9070685887 408.97723805595086L778.9070685887 408.97723805595086Q785.74363783039 408.97723805595086 791.285708754127 397.0435816873202L791.285708754127 397.0435816873202Q786.0470358736603 398.05490849822115 781.9612755576206 398.5807984398896Q777.8755152415811 399.08646184534007 774.9628940261864 399.5112191059184L774.9628940261864 399.5112191059184Q769.1376515953973 400.4011866995112 769.2994638851414 402.5856526110572L769.2994638851414 402.5856526110572Q769.2994638851414 405.3364615367076 772.5761627524603 407.23775594120127Q775.8528616197792 409.13905034569495 778.9070685887 408.97723805595086ZM910.5615928317789 356.71186846859246L910.5615928317789 356.71186846859246Q914.3439551045483 353.94083300672395 917.3981620734689 349.9359788355564Q920.4523690423896 345.93112466438885 922.5761553452816 345.93112466438885Q924.6797151119554 345.93112466438885 924.6797151119554 352.2620305006285Q924.6797151119554 358.5929363368681 921.1198447375842 364.1956868692591Q917.539747826995 369.81866393786805 911.7145053962058 373.60102621063743L911.7145053962058 373.60102621063743Q899.7808490275753 381.46914879944643 883.4580342996348 381.46914879944643L883.4580342996348 381.46914879944643Q863.6562553421952 381.46914879944643 852.7339257844656 371.5581460526176Q841.8115962267358 361.6471433057888 841.8115962267358 344.02983025989516L841.8115962267358 344.02983025989516Q841.8115962267358 322.3267568979619 852.3091685238871 302.82837598379257L852.3091685238871 302.82837598379257Q855.7881327533862 296.41656400268084 860.1570645764781 291.01607883247004L860.1570645764781 291.01607883247004Q856.8196861005051 287.0921308061746 854.8577120873574 282.8041051279548Q852.8755115379915 278.49585291351696 852.8755115379915 276.311387001971L852.8755115379915 276.311387001971Q852.8755115379915 272.38743897567554 855.7881327533862 272.38743897567554L855.7881327533862 272.38743897567554Q857.8310129114061 272.52902472920164 860.4604626197483 275.158474437544L860.4604626197483 275.158474437544L864.9709801963663 279.52740626063587Q866.7104623111159 281.2668883753854 868.6117567156095 282.4400274760304L868.6117567156095 282.4400274760304Q883.0332770390564 270.2029730641296 899.6999428827032 270.2029730641296Q916.386835262568 270.2029730641296 921.3221100997644 279.52740626063587L921.3221100997644 279.52740626063587Q923.0818187507319 283.00637049013494 923.0818187507319 288.1034576170755L923.0818187507319 288.1034576170755Q923.0818187507319 295.8299944523584 916.386835262568 301.068667332825Q909.6716252381862 306.30734021329164 898.385218028532 306.30734021329164Q887.0988108188781 306.30734021329164 875.0235686967212 301.6552368831475L875.0235686967212 301.6552368831475Q864.6878086893141 319.27254992904113 864.6878086893141 338.50798587237625L864.6878086893141 338.50798587237625Q864.6878086893141 365.1463340715059 885.945898254451 365.1463340715059L885.945898254451 365.1463340715059Q899.0526937237266 365.1463340715059 910.5615928317789 356.71186846859246ZM882.0017236919375 292.6342017299115L882.0017236919375 292.6342017299115Q889.4450890201681 295.1018391485097 898.1829526663519 295.1018391485097Q906.9208163125356 295.1018391485097 906.9208163125356 290.28792352862143L906.9208163125356 290.28792352862143Q906.9208163125356 284.6244933875764 899.7808490275753 284.6244933875764L899.7808490275753 284.6244933875764Q890.0114320342726 284.6244933875764 882.0017236919375 292.6342017299115ZM1006.8196786933264 345.93112466438885L1006.8196786933264 345.93112466438885Q1009.4289018654506 345.93112466438885 1009.4289018654506 352.6261081525528L1009.4289018654506 352.6261081525528Q1009.4289018654506 356.266884671796 1006.37469489653 361.4448779436086Q1003.3204879276092 366.6026446792032 998.4458926990669 370.91089689364105Q993.5712974705245 375.1989225718608 987.5842427499913 377.9699580337293Q981.617414565676 380.74099349559776 975.9337578884129 380.74099349559776L975.9337578884129 380.74099349559776Q968.227447589348 380.74099349559776 965.5979978810058 367.1892142295257L965.5979978810058 367.1892142295257Q961.8156356082363 373.45944045711127 955.707221670395 377.4642946282788Q949.5785811963356 381.46914879944643 939.3237273338004 381.46914879944643Q929.0486469350473 381.46914879944643 922.7784207074617 375.0573368183347Q916.5284210160942 368.645524837223 916.6700067696203 359.46267739424286L916.6700067696203 359.46267739424286Q916.6700067696203 334.7053970633889 933.1344072510869 320.4456890296862L933.1344072510869 320.4456890296862Q940.112562246303 314.4788608453709 946.1602965754905 312.5775664408772Q952.2080309046779 310.6762720363835 958.9030143928419 310.6762720363835Q965.5979978810058 310.6762720363835 969.8253439505714 313.0225502376736L969.8253439505714 313.0225502376736Q971.8682241085913 308.7952041681079 974.4774472807156 308.7952041681079L974.4774472807156 308.7952041681079Q979.5745344076562 308.7952041681079 984.1659581291462 313.2248155998538Q988.7573818506363 317.67465356781776 988.7573818506363 321.59860159411323L988.7573818506363 321.59860159411323Q986.7145016926165 326.4125172140015 982.790553666321 333.10750070216545L982.790553666321 333.10750070216545Q981.617414565676 339.80248419032944 981.617414565676 351.8979528487041Q981.617414565676 363.9934215070789 984.6716215345966 363.9934215070789L984.6716215345966 363.9934215070789Q988.474210343584 363.9934215070789 1003.0373164205571 348.84374587978346L1003.0373164205571 348.84374587978346Q1005.6465395926814 345.93112466438885 1006.8196786933264 345.93112466438885ZM938.0696820882833 354.6689883105726L938.0696820882833 354.6689883105726Q938.0696820882833 365.8744893753545 946.3827884738887 365.8744893753545L946.3827884738887 365.8744893753545Q955.2622378735986 365.7329036218284 961.0874803043878 356.40847042532215L961.0874803043878 356.40847042532215Q963.1303604624076 353.21267770287534 964.4450853165788 348.54034783651315L964.4450853165788 348.54034783651315Q964.4450853165788 332.2377596447907 967.3577065319732 320.58727478321237L967.3577065319732 320.58727478321237Q955.5454093806509 322.9133264482844 946.807545734467 331.9545881377384Q938.0696820882833 340.97562329097445 938.0696820882833 354.6689883105726ZM1091.5688654468217 345.93112466438885L1091.5688654468217 345.93112466438885Q1094.198315155164 345.93112466438885 1094.198315155164 352.6261081525528L1094.198315155164 352.6261081525528Q1094.198315155164 356.266884671796 1091.144108186243 361.4448779436086Q1088.0696746811045 366.6026446792032 1083.1950794525621 370.91089689364105Q1078.3204842240198 375.1989225718608 1072.3536560397047 377.9699580337293Q1066.3868278553891 380.74099349559776 1060.7031711781262 380.74099349559776L1060.7031711781262 380.74099349559776Q1052.693462835791 380.74099349559776 1050.2055988809748 367.6341980263221L1050.2055988809748 367.6341980263221Q1041.4677352347912 381.46914879944643 1024.2954059856938 381.46914879944643L1024.2954059856938 381.46914879944643Q1013.7978336885426 381.46914879944643 1007.5478339971751 375.0573368183347Q1001.2776077695894 368.645524837223 1001.4191935231156 359.46267739424286L1001.4191935231156 359.46267739424286Q1001.4191935231156 334.7053970633889 1017.8835940045822 320.4456890296862L1017.8835940045822 320.4456890296862Q1029.2509073591084 310.6762720363835 1041.4677352347912 310.6762720363835L1041.4677352347912 310.6762720363835Q1047.0098061585281 310.6762720363835 1050.2055988809748 311.56623962997634L1050.2055988809748 311.56623962997634L1053.5632038931658 312.4359806873511Q1059.530032077481 284.3210953443061 1067.39815466629 274.85507639427374L1067.39815466629 274.85507639427374Q1070.0276043746326 271.65928367182687 1072.6368275467569 271.65928367182687L1072.6368275467569 271.65928367182687Q1076.8641736163227 271.65928367182687 1080.5049501355659 277.4845261026161L1080.5049501355659 277.4845261026161Q1083.7007428580127 282.27821518628633 1083.7007428580127 285.7774059520034Q1083.7007428580127 289.2765967177205 1082.6894160471118 292.6342017299115Q1081.6780892362108 295.9715802058845 1080.1408724836415 298.823521812625Q1078.6036557310722 301.6552368831475 1076.7225878627964 304.3453662001439Q1074.8212934583028 307.0354955171403 1072.940225590027 309.80653097900876L1072.940225590027 309.80653097900876Q1068.7128795204612 325.54277615662676 1066.6699993624416 345.0613836070141L1066.6699993624416 345.0613836070141Q1066.083429812119 350.583227994533 1066.083429812119 353.94083300672395L1066.083429812119 353.94083300672395Q1066.083429812119 363.9934215070789 1069.44103482431 363.9934215070789L1069.44103482431 363.9934215070789Q1073.2233970970792 363.9934215070789 1087.7865031740523 348.84374587978346L1087.7865031740523 348.84374587978346Q1090.4159528823948 345.93112466438885 1091.5688654468217 345.93112466438885ZM1022.8390953779965 354.6689883105726L1022.8390953779965 354.6689883105726Q1022.8390953779965 365.8744893753545 1031.131975227384 365.8744893753545L1031.131975227384 365.8744893753545Q1036.0874766007983 365.8744893753545 1041.1036575828668 362.0921271025852Q1046.1400651011534 358.30976482981583 1048.9111005630218 349.43031543010596L1048.9111005630218 349.43031543010596Q1049.194272070074 336.3235199608303 1051.9653075319425 320.58727478321237L1051.9653075319425 320.58727478321237Q1040.3148226703643 322.9133264482844 1031.5769590241803 331.9545881377384Q1022.8390953779965 340.97562329097445 1022.8390953779965 354.6689883105726Z " fill="#ffffff" transform="matrix(0.7996722664980583,0,0,0.7996722664980583,0,23.950792877859143)"/></g></svg>