<svg xmlns="http://www.w3.org/2000/svg" version="1.1" xmlns:xlink="http://www.w3.org/1999/xlink" xmlns:svgjs="http://svgjs.dev/svgjs" width="100%" height="100%" viewBox="0 0 1000 600"><rect width="1000" height="600" x="0" y="0" fill="#555ff5"/><g><circle r="166.66666666666666" cx="308.8014780680338" cy="331.02370591777907" fill="#ffffff" transform="matrix(0.8794468681083006,0,0,0.8794468681083006,0,8.882253093540427)"/><path d="M209.6469382642174 338.68759766014705L209.6469382642174 270.0512925857197Q208.62142250003174 266.7183663521163 208.1086646179389 263.110748395963Q207.59590673584606 259.50313043980987 207.59590673584606 256.02370195417984L207.59590673584606 256.02370195417984L213.12636674984742 256.02370195417984Q213.2545562203706 256.02370195417984 213.7123757579535 257.63522672647167Q214.1518825140331 259.24675149876344 214.7378915221392 261.425972497658Q215.32390053024528 263.62350627805586 215.8915967568481 266.0591062179969Q216.47760576495418 268.51301893944117 216.6057952354774 270.0512925857197L216.6057952354774 270.0512925857197Q216.8621741765238 271.2233106019319 217.1918042435835 274.17166842396574Q217.50312152913986 277.13833902750287 217.75950047018628 280.5628291686229Q218.0158794112327 283.9690065282397 218.27225835227912 286.99061547628673Q218.52863729332554 290.01222442433385 218.52863729332554 291.18424244054603L218.52863729332554 291.18424244054603L222.00806577895554 291.18424244054603Q222.13625524947875 291.18424244054603 223.74778002177052 290.21366502087034Q225.35930479406233 289.2430876011946 227.61177691897015 287.8330034254393Q229.86424904387798 286.40460646818065 232.244910639309 284.93958394791537Q234.62557223474008 283.45624864614683 236.1821586625219 282.41242010045784L236.1821586625219 282.41242010045784Q242.09718708809288 278.2920442622118 247.8290876986307 273.9152894829193Q253.56098830916852 269.53853470362685 259.09144832316986 264.7772115127648L259.09144832316986 264.7772115127648L262.5708768087999 264.7772115127648L262.5708768087999 266.59017688159304Q262.5708768087999 266.7183663521163 261.3439204480777 267.9270099313351Q260.13527686885885 269.15396629205725 258.45050097055383 270.89368053487226Q256.7840378537521 272.6333947776873 254.97107248492384 274.2998578944889Q253.1764198975989 275.984633792794 252.02271466289 277.0101495569797L252.02271466289 277.0101495569797Q250.33793876458498 278.420233732735 247.57270875758428 280.36138857208647Q244.8074787505836 282.2842306299346 241.45623973547683 284.3535749398093Q238.10500072037007 286.40460646818065 234.62557223474008 288.60214024857856Q231.1644565306134 290.7813612474731 228.32597539759945 292.77745443133455Q225.4874942645855 294.7735476151959 223.6928416772606 296.3850723874877Q221.87987630843233 297.9965971597795 221.87987630843233 299.0221129239652L221.87987630843233 299.0221129239652Q221.87987630843233 299.29680464651494 221.87987630843233 299.68137305808455Q221.87987630843233 300.0659414696542 222.00806577895554 300.0659414696542L222.00806577895554 300.0659414696542L232.70273017689192 312.2988795138691L259.09144832316986 328.9085723373765Q262.44268733827664 328.9085723373765 265.02478953024416 329.21988962293284Q267.5885789407084 329.5495196899925 270.09743000666265 330.0073392275754Q272.62459385412023 330.446845983655 275.3898238611209 330.90466552123786Q278.1550538681215 331.34417227731745 282.01905076532114 331.72874068888706L282.01905076532114 331.72874068888706L282.01905076532114 332.13162188196003L282.01905076532114 332.51619029352963Q282.01905076532114 333.5417060577153 281.68942069826153 334.1826534103314Q281.37810341270506 334.8236007629474 280.2060853964929 335.2081691745171L280.2060853964929 335.2081691745171Q279.8215169849233 335.2081691745171 278.92419069126083 335.33635864504026Q278.02686439759833 335.4645481155635 277.0562869779226 335.53779924157675Q276.0857095582469 335.5927375860867 275.2616343905977 335.5927375860867Q274.4192464414451 335.5927375860867 274.0346780298755 335.5927375860867L274.0346780298755 335.5927375860867Q267.4603894701852 335.5927375860867 261.03260316252135 333.5966444022253Q254.5865040733542 331.6005512183639 248.34184558072354 328.5240039258068Q242.09718708809288 325.42914385174646 236.36528647755506 321.56514695454683Q230.63338586701724 317.7011500573472 225.61568373510875 313.9653426306708L225.61568373510875 313.9653426306708Q223.8210311477838 312.93982686648513 223.18008379516775 312.2256283878558Q222.52082366104838 311.52974269072985 222.209506375492 310.94373368262376Q221.87987630843233 310.3577246745176 221.18399061130634 309.84496679242477Q220.46979213267701 309.33220891033193 218.52863729332554 308.8194510282391L218.52863729332554 308.8194510282391Q218.52863729332554 309.33220891033193 218.60188841933882 310.5591652710541Q218.65682676384876 311.78612163177627 218.65682676384876 313.2511441520415Q218.65682676384876 314.7344794538101 218.60188841933882 315.96143581453225Q218.52863729332554 317.18839217525436 218.52863729332554 317.572960586824L218.52863729332554 317.572960586824Q218.40044782280233 319.23942370362573 218.21732000776916 321.3087680135004Q218.0158794112327 323.3597995418718 217.83275159619956 325.7404611373028Q217.63131099966307 328.13943551423716 217.50312152913986 330.446845983655Q217.37493205861665 332.7725692345761 217.1918042435835 334.567221821901Q216.99036364704702 336.38018719072926 216.7339847060006 337.66208189596136L216.7339847060006 337.66208189596136L216.6057952354774 338.68759766014705L213.12636674984742 342.29521561630025L209.6469382642174 338.68759766014705ZM286.13942660356724 328.011246043714L286.13942660356724 328.011246043714Q286.13942660356724 323.10342060082536 287.36638296428936 317.572960586824Q288.5750265435082 312.0425005728227 290.7725603239061 306.6951683738545Q292.97009410430394 301.3478361748863 296.11989252287424 296.5865129840242Q299.26969094144454 291.8251897931621 303.00549836812104 288.14432071099566Q306.7413057947974 284.4817644103325 311.1180605740899 282.2842306299346Q315.49481535338236 280.10500963104005 320.25613854424444 280.10500963104005L320.25613854424444 280.10500963104005Q321.2816543084301 280.10500963104005 323.2777474922915 280.5628291686229Q325.2738406761529 281.0023359247025 327.3431849860276 281.7165344033318Q329.394216514399 282.41242010045784 330.95080294218076 283.45624864614683Q332.4890765884593 284.4817644103325 332.4890765884593 285.5072801745182L332.4890765884593 285.5072801745182L310.22073428042734 288.34576130753214Q307.7668215589831 288.34576130753214 305.5876005600885 290.7264229029632Q303.39006677969064 293.1070844983942 301.5221630663524 296.76964079905736Q299.65425935301425 300.4505098812238 298.1709240512456 305.01039247554945Q296.6875887494771 309.58858785137835 295.6071346407814 313.9653426306708Q294.50836775058247 318.3420974099633 293.9223587424764 321.9497153661165Q293.3546625158736 325.5573333222697 293.3546625158736 327.35198590959465L293.3546625158736 327.35198590959465L293.3546625158736 328.65219339633Q293.3546625158736 329.4213302194693 293.40960086038353 330.391907639145Q293.4828519863968 331.34417227731745 293.4828519863968 332.38800082300645L293.4828519863968 332.38800082300645L293.4828519863968 333.5417060577153Q293.4828519863968 333.79808499876174 293.9956098684896 334.3108428808546L293.9956098684896 334.3108428808546L296.17483086738423 336.38018719072926Q296.6875887494771 337.02113454334534 296.94396769052344 337.1493240138685L296.94396769052344 337.1493240138685Q297.09046994255004 337.1493240138685 297.3468488835964 337.1493240138685L297.3468488835964 337.1493240138685L297.731417295166 337.1493240138685Q300.67977511719994 337.1493240138685 303.4633179057039 335.5927375860867Q306.2285479127046 334.05446393980816 308.60920950813556 331.8569301594103Q310.98987110356666 329.6777091605157 312.98596428742803 327.1688580945615Q314.98205747128947 324.6600070286072 316.3921416470448 322.9752311303022L316.3921416470448 322.9752311303022Q317.161278470184 322.0779048366397 317.619098007767 319.0562958885926Q318.07691754534983 316.0346869405455 318.5164243014294 312.0974389173326Q318.9742438390123 308.17850367562306 319.4870017211051 303.72849777031735Q319.99975960319796 299.29680464651494 320.7688964263373 295.6159355643485Q321.5380332494765 291.95337926368535 322.6368001396754 289.62765601276425Q323.7355670298744 287.32024554334646 325.4020301466761 287.32024554334646L325.4020301466761 287.32024554334646Q325.53021961719935 287.32024554334646 325.9331008102723 287.32024554334646L325.9331008102723 287.32024554334646L326.1894797513187 287.32024554334646Q326.1894797513187 287.9611928959625 326.2444180958287 290.5249823064267Q326.3176692218419 293.1070844983942 326.3726075663519 296.6414513285342Q326.4458586923651 300.1941309401774 326.50079703687504 304.1863173079002Q326.5740481628883 308.17850367562306 326.5740481628883 311.71287050576296Q326.5740481628883 315.2472373359029 326.7022376334115 317.82933952787045Q326.83042710393477 320.41144171983797 326.95861657445795 321.052389072454L326.95861657445795 321.052389072454Q326.95861657445795 321.6933364250701 327.59956392707403 322.92029278579224Q328.24051127969005 324.1472491465144 329.0096481028293 325.3009543812233Q329.7787849259686 326.45465961593214 330.6944240011344 327.35198590959465Q331.59175029479684 328.2676249847604 332.1045081768897 328.2676249847604L332.1045081768897 328.2676249847604L353.988282073352 328.2676249847604Q353.988282073352 329.6777091605157 352.7796384941331 330.7032249247014Q351.552682133411 331.72874068888706 349.7397167645827 332.51619029352963Q347.9450641772578 333.2853271166689 345.74753039685993 333.8530233432717Q343.5683093979653 334.4390323513778 341.49896508809064 334.7686624184375Q339.44793355971933 335.07997970399384 337.634968190891 335.2081691745171Q335.84031560356607 335.33635864504026 334.9429893099036 335.33635864504026L334.9429893099036 335.33635864504026Q329.7787849259686 335.33635864504026 326.3176692218419 333.0289481756225Q322.8382407362119 330.7032249247014 319.8715701326748 326.5828490864554L319.8715701326748 326.5828490864554Q318.20510701587307 328.65219339633 315.9526348909652 331.2159828067942Q313.70016276605736 333.79808499876174 310.9166199775534 336.1787465941928Q308.1513899705527 338.55940818962387 305.0015915519824 340.2258713064256Q301.8517931334121 341.91064720473065 298.7569330593517 342.29521561630025L298.7569330593517 342.29521561630025Q294.76474669162894 342.8079734983931 292.38408509619785 341.70920660819417Q290.00342350076687 340.62875249949855 288.5750265435082 338.68759766014705Q287.16494236775293 336.76475560229886 286.6521844856601 333.9812128137949Q286.13942660356724 331.2159828067942 286.13942660356724 328.011246043714ZM347.81687470673455 380.14773498365383L347.81687470673455 380.14773498365383Q347.81687470673455 379.89135604260747 348.25638146281415 378.2248929258057Q348.714201000397 376.5401170275007 349.3551483530131 374.6722133141625Q349.99609570562916 372.80430960082424 350.78354531027173 371.2660359545457Q351.552682133411 369.72776230826724 352.45000842707344 369.72776230826724L352.45000842707344 369.72776230826724Q352.45000842707344 375.64279073383824 354.629229425968 380.9901229328064Q356.8267632063659 386.33745513177456 360.61750897755223 390.3296414994974Q364.426567530242 394.32182786722024 369.6457102586869 396.57429999212803Q374.84654020562857 398.8267721170359 380.7798814127029 398.8267721170359L380.7798814127029 398.8267721170359Q386.18215195618103 398.8267721170359 389.9179593828574 396.7024894626513Q393.6537668095338 394.57820680826666 396.10767953097815 390.97058885211345Q398.5432794709192 387.36297089596025 399.89842530216447 382.8580266461446Q401.2535711334099 378.35308239632894 401.89451848602585 373.51850807945357Q402.5354658386419 368.6839337625782 402.66365530916516 364.1240511682526Q402.7918447796884 359.54585579242365 402.7918447796884 355.681858895224L402.7918447796884 355.681858895224Q402.7918447796884 354.399964189992 402.7369064351784 351.8911131240377Q402.66365530916516 349.3822620580834 402.66365530916516 346.92834933663914Q402.66365530916516 344.4927493966981 402.66365530916516 342.6248456833599Q402.66365530916516 340.7569419700217 402.66365530916516 340.62875249949855L402.66365530916516 340.62875249949855Q402.66365530916516 340.0976818359024 402.48052749413205 338.1748397780542Q402.27908689759545 336.2519977202061 401.94945683053584 333.9812128137949Q401.6381395449795 331.72874068888706 401.381760603933 329.6777091605157Q401.12538166288664 327.60836485064107 400.9971921923634 326.5828490864554L400.9971921923634 326.5828490864554Q400.86900272184016 326.07009120436254 400.6675621253038 324.78819649913044Q400.48443431027056 323.487989012395 400.09986589870095 322.0779048366397Q399.696984705628 320.6678206608844 399.0560373530119 319.36761317414897Q398.41509000039594 318.08571846891687 397.38957423621025 317.572960586824L397.38957423621025 317.572960586824Q395.8329878084284 320.6678206608844 393.0677578014278 324.0739980205011Q390.3025277944271 327.4801753801178 386.7681609642871 330.391907639145Q383.2154813526439 333.2853271166689 379.4247355814575 335.2081691745171Q375.63398981027115 337.1493240138685 371.7699929130715 337.1493240138685L371.7699929130715 337.1493240138685Q368.80332230953445 337.1493240138685 366.80722912567296 335.53779924157675Q364.8111359418116 333.926274469285 363.5841795810894 331.4723617478407Q362.35722322036725 329.03676180789967 361.6613375232413 325.8137122633161Q360.94713904461196 322.5906627187325 360.6907601035655 319.4408643001622Q360.4343811625191 316.2910658815919 360.36113003650587 313.5258358745912Q360.3061916919959 310.7422930860873 360.3061916919959 308.9476404987623L360.3061916919959 308.9476404987623Q360.3061916919959 305.85278042470196 360.8189495740888 302.1169729980256Q361.33170745618156 298.38116557134913 362.0459059348109 294.3889792036263Q362.7417916319369 290.39679283590345 363.4559901105662 286.4778575941939Q364.1701885891955 282.540609570981 364.8111359418116 279.2076833373776L364.8111359418116 279.2076833373776Q365.83665170599727 277.13833902750287 367.5214276043023 277.13833902750287L367.5214276043023 277.13833902750287Q367.6496170748255 277.13833902750287 367.9609343603819 277.21159015351617Q368.29056442744155 277.2665284980261 368.41875389796473 277.2665284980261L368.41875389796473 277.2665284980261Q368.41875389796473 278.420233732735 368.3455027719515 281.4601554622854Q368.29056442744155 284.4817644103325 368.16237495691837 288.34576130753214Q368.03418548639513 292.2097582047317 367.83274488985865 296.6414513285342Q367.6496170748255 301.0914572338399 367.5763659488122 304.9554541310395Q367.5214276043023 308.8194510282391 367.44817647828904 311.78612163177627Q367.39323813377905 314.7344794538101 367.5214276043023 315.9064974700223L367.5214276043023 315.9064974700223Q367.5214276043023 317.18839217525436 367.6496170748255 319.56905377068546Q367.7778065453487 321.9497153661165 368.29056442744155 324.27543861703754Q368.80332230953445 326.5828490864554 369.9020891997334 328.39581445528364Q370.98254330842894 330.19046704260853 373.30826655935005 330.19046704260853L373.30826655935005 330.19046704260853Q375.23110861719823 330.19046704260853 377.6850213386425 329.80589863103893Q380.13893406008685 329.4213302194693 381.42082876531896 328.2676249847604L381.42082876531896 328.2676249847604Q383.2154813526439 326.71103855697856 385.79758354461137 324.2021874910243Q388.37968573657895 321.6933364250701 390.6870962059967 319.11123423310255Q393.0128194569178 316.54744482263834 394.7525336997328 314.6062899832869Q396.49224794254775 312.6834479254387 396.49224794254775 312.2988795138691L396.49224794254775 312.2988795138691L399.18422682353514 273.9152894829193Q399.18422682353514 273.4025316008265 399.56879523510486 273.0179631892569Q399.95336364667446 272.6333947776873 400.53937265478055 272.45026696265404Q401.12538166288664 272.2488263661176 401.6930778894895 272.12063689559443Q402.27908689759545 271.9924474250712 402.7918447796884 271.9924474250712L402.7918447796884 271.9924474250712Q404.4766206779934 271.9924474250712 405.3006958456426 273.0912143152701Q406.1430837947952 274.17166842396574 407.1685995589809 275.7282548517476L407.1685995589809 275.7282548517476Q406.1430837947952 284.8663328219021 406.5276522063648 295.23136715277883Q406.9122206179344 305.59640148365554 407.6813574410736 316.08962528505543Q408.4688070457163 326.5828490864554 409.2379438688555 336.9478834173321Q410.0070806919948 347.31291774820875 410.0070806919948 356.45099571836334L410.0070806919948 356.45099571836334Q410.0070806919948 357.4948242640523 410.0070806919948 360.260054271053Q410.0070806919948 363.0252842780537 409.93382956598145 366.120144352114Q409.8788912214716 369.2150044261744 409.75070175094834 371.98023443317504Q409.6225122804251 374.74546444017574 409.6225122804251 375.7709802043614L409.6225122804251 375.7709802043614Q409.10975439833226 381.1732507478395 406.6558416768879 386.52058294680774Q404.22024173694695 391.8679151457759 400.3562448397473 396.2446699250684Q396.49224794254775 400.62142470436083 391.401294684626 403.3317163668516Q386.3103414267042 406.023695247839 380.52350247165646 406.023695247839L380.52350247165646 406.023695247839Q377.94140027968893 406.023695247839 374.407033449549 405.0714306096666Q370.8543538379057 404.1008531899908 367.26504866325587 402.36113894717585Q363.65743070710266 400.62142470436083 360.1780022214727 398.2407631089298Q356.69857373584273 395.86010151349876 353.988282073352 393.0216203804848Q351.2963031923646 390.2014520289742 349.55658894954956 386.9051513583774Q347.81687470673455 383.62716346928386 347.81687470673455 380.14773498365383Z " fill="#555ff5" transform="matrix(0.8794468681083006,0,0,0.8794468681083006,0,8.882253093540427)"/><path d="M558.8014959850207 356.15150766484106L558.8014959850207 356.15150766484106Q558.8014959850207 340.75987003558663 563.4025549204562 326.98408048484816Q568.0310011114598 313.20829093410975 574.7682659812046 299.3503396166671L574.7682659812046 299.3503396166671Q578.0547366493729 295.48873658156947 580.3552661170907 292.99649632487524Q582.6831828403764 290.4768688126129 585.2575848637748 288.9431825008011Q587.8593741427413 287.40949618898924 591.0362957886373 286.7248147997875Q594.2132174345331 286.0675206661539 598.8416636255367 286.0675206661539L598.8416636255367 286.0675206661539Q603.2783990275639 286.0675206661539 608.947560930154 287.299947166717Q614.6441100883123 288.5597609228481 619.738139623973 291.2710992240869Q624.8321691596337 293.95505026975763 628.3103506167785 298.09052586053593Q631.7611448183551 302.2260014513143 631.7611448183551 308.00471237617677L631.7611448183551 308.00471237617677Q627.9269290388255 308.00471237617677 623.9831642370236 305.40292309721025Q620.0393994352218 302.8011338182437 615.8765365888753 299.73376119462006Q611.741060998097 296.6390013154283 606.8387422514128 294.06459929202987Q601.9364235047285 291.46281001306335 595.5825802129366 291.46281001306335L595.5825802129366 291.46281001306335Q591.5292663888624 291.46281001306335 587.8593741427413 295.02315323691226Q584.2168691521882 298.5834964607612 581.2316582952687 304.2526583633514Q578.2464474383494 309.9492075215096 576.0280797373357 316.8781831802309Q573.8097120363223 323.80715883895226 572.3581874912146 330.5444237086971Q570.9340502016751 337.2816885784419 570.139819790201 343.0603995033044Q569.3729766342951 348.8391104281668 569.3729766342951 352.09819384076695L569.3729766342951 352.09819384076695Q569.3729766342951 362.69706174560946 572.6594473024634 371.0775619494384Q575.9185307150635 379.45806215326735 581.8889524289025 385.12722405585754Q587.8593741427413 390.8237732140157 596.4315851355468 393.8911458376394Q605.0037961283522 396.98590571683116 615.6026640331947 396.98590571683116L615.6026640331947 396.98590571683116Q622.9150612698689 396.98590571683116 628.5842231724591 395.23312136047474Q634.2807723306173 393.5077242596864 638.525796943668 391.4810673476494Q642.7434343011505 389.48179769118036 645.5369343690935 387.8385623570963Q648.3304344370365 386.19532702301217 649.6724099598719 386.19532702301217L649.6724099598719 386.19532702301217Q651.2334835272518 386.19532702301217 652.1920374721342 386.8800084122139Q653.1505914170166 387.5373025458475 653.5340129949695 388.6054055130022Q653.9174345729225 389.67350848015684 654.109145361899 390.90593498071996Q654.3008561508755 392.16574873685107 654.3008561508755 393.5077242596864L654.3008561508755 393.5077242596864Q654.3008561508755 396.98590571683116 651.6169051052048 399.2042734178447Q648.9055668039659 401.3952538632902 644.7700912131876 402.65506761942135Q640.6346156224092 403.91488137555245 635.4310370644762 404.4900137424819Q630.2274585065433 405.06514610941133 625.325139759859 405.06514610941133Q620.4228210131747 405.06514610941133 616.1777964001242 404.98298434270714Q611.9327717870735 404.87343532043485 609.6322423193558 404.87343532043485L609.6322423193558 404.87343532043485Q598.8416636255367 404.87343532043485 589.5026094768255 401.313092096586Q580.1635553281142 397.7527488727371 573.316741436097 391.2893565586729Q566.4973147996479 384.8533515001768 562.6357117645503 375.9798806961226Q558.8014959850207 367.1337971476365 558.8014959850207 356.15150766484106ZM662.7909053769766 383.319665188365L662.7909053769766 383.319665188365Q662.7909053769766 375.9798806961226 664.5984642444691 367.70892951456597Q666.4334103675297 359.4379783330093 669.7198810356979 351.4408997071333Q672.978964448298 343.44382108125734 677.6895724060058 336.3231346335595Q682.4275676192817 329.2024481858617 688.0145677551677 323.69760981667997Q693.6015678910536 318.22015870306626 700.147121971822 314.93368803489807Q706.6926760525903 311.6746046222979 713.8133625002881 311.6746046222979L713.8133625002881 311.6746046222979Q715.3470488121 311.6746046222979 718.3322596690194 312.3592860114996Q721.3174705259389 313.0165801451333 724.4122304051307 314.08468311228796Q727.4796030287544 315.12539882387455 729.7801324964721 316.6864723912544Q732.1080492197578 318.22015870306626 732.1080492197578 319.7538450148781L732.1080492197578 319.7538450148781L698.7777591934187 323.99886962792874Q695.1352542028654 323.99886962792874 691.8487835346973 327.5592128517776Q688.5897001220972 331.1195560756265 685.7962000541542 336.5970071892402Q683.0026999862112 342.101845558422 680.7843322851976 348.921272194871Q678.565964584184 355.7680860868881 676.9227292500999 362.3136401676565Q675.3068811715839 368.85919424842484 674.4304889934058 374.2544835953343Q673.5540968152275 379.6497729422438 673.5540968152275 382.33372398791454L673.5540968152275 382.33372398791454L673.5540968152275 384.2782191332474Q673.5540968152275 385.42848386710625 673.6636458374998 386.8800084122139Q673.7458076042041 388.30414570175344 673.7458076042041 389.8652192691334L673.7458076042041 389.8652192691334L673.7458076042041 391.59061636992163Q673.7458076042041 391.9740379478746 674.5126507601099 392.7408811037805L674.5126507601099 392.7408811037805L677.7991214282781 395.8356409829723Q678.565964584184 396.7941949278547 678.949386162137 396.98590571683116L678.949386162137 396.98590571683116Q679.1410969511135 396.98590571683116 679.5245185290664 396.98590571683116L679.5245185290664 396.98590571683116L680.0996508959959 396.98590571683116Q684.536386298023 396.98590571683116 688.6718618888013 394.6579889935453Q692.8073374795797 392.35745952582755 696.3676807034285 389.07098885765936Q699.9554111828455 385.8119054450592 702.940622039765 382.05985143223387Q705.9258328966845 378.3077974194085 708.0346515754256 375.78816990714614L708.0346515754256 375.78816990714614Q709.1849163092845 374.4461943843108 709.8695976984864 369.92729721557953Q710.52689183212 365.4084000468482 711.2115732213217 359.5201400997135Q711.8688673549552 353.65926740814683 712.6630977664292 347.0041643051062Q713.4299409223352 340.37644845763367 714.580205656194 334.87161008845186Q715.7304703900529 329.3941589748382 717.373705724137 325.9159775176935Q719.0169410582212 322.4651833161169 721.5091813149154 322.4651833161169L721.5091813149154 322.4651833161169Q721.7008921038919 322.4651833161169 722.2760244708213 322.4651833161169L722.2760244708213 322.4651833161169L722.6594460487743 322.4651833161169Q722.6594460487743 323.42373726099925 722.7689950710466 327.2579530405289Q722.8511568377508 331.1195560756265 722.960705860023 336.4052964002637Q723.0428676267272 341.718423980469 723.1524166489995 347.68884569430793Q723.2345784157037 353.65926740814683 723.2345784157037 358.94500773278406Q723.2345784157037 364.2307480574213 723.4262892046802 368.0923510925189Q723.6179999936567 371.95395412761656 723.8097107826331 372.91250807249895L723.8097107826331 372.91250807249895Q723.8097107826331 373.87106201738135 724.7956519830836 375.70600814044195Q725.754205927966 377.54095426350256 726.9044706618249 379.26635136429087Q728.0547353956838 380.9917484650792 729.3967109185191 382.33372398791454Q730.7660736969226 383.703086766318 731.5329168528285 383.703086766318L731.5329168528285 383.703086766318L764.2606872566703 383.703086766318Q764.2606872566703 385.8119054450592 762.4257411336097 387.34559175687104Q760.5907950105491 388.87927806868294 757.9068439648784 390.0569300581098Q755.2228929192077 391.2071947919687 751.9364222510394 392.05619971457884Q748.6499515828713 392.932591892757 745.5825789592476 393.42556249298224Q742.4878190800558 393.8911458376394 739.8038680343851 394.08285662661586Q737.1199169887144 394.27456741559234 735.750554210311 394.27456741559234L735.750554210311 394.27456741559234Q728.0547353956838 394.27456741559234 722.8511568377508 390.8237732140157Q717.6475782798177 387.34559175687104 713.2382301333587 381.18345925405566L713.2382301333587 381.18345925405566Q710.7186026210965 384.2782191332474 707.349970186224 388.11243491277696Q703.9813377513516 391.9740379478746 699.8458621605732 395.5343811717235Q695.7103865697949 399.0947243955724 690.9997786120871 401.58696465226666Q686.2617833988113 404.10659216452893 681.6607244633758 404.68172453145837L681.6607244633758 404.68172453145837Q675.6903027495368 405.4485676873643 672.1299595256879 403.8053323532802Q668.542229046271 402.1894842747642 666.4334103675297 399.2864351845489Q664.3245916887885 396.4107733499017 663.5577485328826 392.2479105035553Q662.7909053769766 388.11243491277696 662.7909053769766 383.319665188365ZM825.1151691289183 375.78816990714614L825.1151691289183 375.78816990714614Q823.006350450177 377.9243758414555 820.2128503822341 380.9917484650792Q817.4193503142911 384.08650834427095 814.5163012240758 387.45514077914333Q811.6406393894288 390.8237732140157 808.2720069545562 394.19240564888815Q804.9033745196839 397.5610380837606 801.5347420848115 400.2449891294313Q798.1387223943709 402.95632743067006 794.7700899594985 404.4900137424819Q791.4014575246262 406.0237000542937 787.9506633230494 406.0237000542937L787.9506633230494 406.0237000542937Q783.7056387099989 406.0237000542937 780.5287170641029 404.4900137424819Q777.351795418207 402.95632743067006 775.1334277171934 400.0532783404548Q772.9150600161798 397.17761650580763 771.764795282321 393.6172732819587Q770.6145305484621 390.0569300581098 770.6145305484621 386.38703781198865L770.6145305484621 386.38703781198865Q770.0393981815328 381.37517004303214 771.1075011486873 374.2544835953343Q772.148216860274 367.1337971476365 774.7500061392404 359.328429310737Q777.351795418207 351.5230614738375 781.2133984533046 343.93679168148253Q785.0476142328342 336.3231346335595 789.8677712128142 330.1610021307441Q794.6879281927943 323.99886962792874 800.2749283286803 320.32897738180753Q805.8619284645663 316.6864723912544 811.8323501784051 316.6864723912544L811.8323501784051 316.6864723912544Q814.1328796461229 316.6864723912544 815.9678257691835 316.7686341579586Q817.8027718922441 316.8781831802309 819.6103307597366 317.1520557359116Q821.4452768827972 317.45331554716034 823.2802230058578 318.0284479140898Q825.1151691289183 318.6035802810192 827.799120174589 319.37042343692514L827.799120174589 319.37042343692514Q829.3601937419689 317.6450263361368 829.9353261088984 315.8100802130762Q830.5104584758278 313.9751340900157 830.5926202425321 311.9484771779786Q830.7021692648043 309.9492075215096 830.5104584758278 307.8130015872003Q830.3187476868513 305.70418290845896 830.3187476868513 303.59536422971775L830.3187476868513 303.59536422971775Q830.3187476868513 301.84257987336133 830.5926202425321 298.2000748828082Q830.8938800537808 294.5301826366871 831.0855908427573 289.8195746789793Q831.2773016317337 285.1089667212715 831.5511741874145 279.9053881633385Q831.8524339986632 274.7018096054055 832.1263065543438 269.9912016476977Q832.4275663655926 265.2532064344219 832.7288261768414 261.6107014438688Q833.002698732522 257.9408091977476 833.002698732522 256.2154120969593L833.002698732522 256.2154120969593L833.5778310994515 256.02370130798283Q834.1529634663809 256.02370130798283 834.5363850443339 256.02370130798283L834.5363850443339 256.02370130798283Q835.9057478227373 256.02370130798283 836.7547527453474 256.59883367491227Q837.6311449235257 257.1739660418417 838.2062772904551 258.89936314263L838.2062772904551 258.89936314263Q838.7814096573845 261.99412302182174 838.6992478906803 269.68994183644895Q838.589698868408 277.3857606510762 838.2062772904551 287.7929177669422Q837.8228557125021 298.2000748828082 837.3298851122769 310.52433988843904Q836.8643017676197 322.84860489406987 836.7547527453474 335.06332087742834Q836.6725909786433 347.30542411635497 837.4394341345492 358.7532969438076Q838.2062772904551 370.2011697712602 840.1233851802199 378.7733807640656Q842.0678803255528 387.34559175687104 845.4365127604251 392.35745952582755Q848.8051451952975 397.3693272947841 854.2004345422071 396.98590571683116L854.2004345422071 396.98590571683116Q855.9258316429954 396.7941949278547 859.760047422525 395.4248321494512Q863.6216504576225 394.08285662661586 867.9488368373775 392.54917031480403Q872.3034104727003 391.0154840029922 876.4388860634787 389.7556702468611Q880.574361654257 388.49585649073 883.2583126999277 388.49585649073L883.2583126999277 388.49585649073Q883.4500234889042 388.49585649073 884.4085774337866 388.6875672797064Q885.394518634237 388.87927806868294 885.77794021219 388.87927806868294L885.77794021219 388.87927806868294Q882.2997587550453 392.35745952582755 878.0547341419947 395.34267038274703Q873.8370967845121 398.3278812396665 869.0169398045321 400.4366999184078Q864.196782824552 402.5729058527171 858.9932042666189 403.8053323532802Q853.817012964254 405.06514610941133 848.9968559842741 405.06514610941133L848.9968559842741 405.06514610941133Q843.4098558483881 405.06514610941133 839.0826694686332 402.3811950637406Q834.7280958333104 399.66985676250187 831.7428849763909 395.4248321494512Q828.7576741194714 391.2071947919687 827.0322770186831 386.0036162340357Q825.3068799178948 380.8000376761027 825.1151691289183 375.78816990714614ZM814.7080120130523 324.3822912058817L814.7080120130523 324.3822912058817Q806.4370608314957 327.0662422515524 800.0832175397038 333.0366639653913Q793.7293742479119 339.0070856792302 789.1009280569083 346.3468701714726Q784.4724818659048 353.65926740814683 781.7885308202341 361.73850780072706Q779.0771925189953 369.81774819330724 778.2281875963852 377.0479836632773Q777.351795418207 384.2782191332474 778.1186385741129 389.7556702468611Q778.8854817300188 395.23312136047474 781.5968200312576 397.17761650580763L781.5968200312576 397.17761650580763Q787.1838201671435 397.17761650580763 792.7708203030295 394.4662782045689Q798.3578204389155 391.7823271588981 803.4518499745762 387.34559175687104Q808.5458795102369 382.908856354844 812.982614912264 376.938434641005Q817.4193503142911 370.99540018273416 820.7879827491636 364.61416963537425Q824.1566151840359 358.26032634358234 825.9641740515285 351.63261049610975Q827.799120174589 344.9775073930692 827.799120174589 339.1987964682067L827.799120174589 339.1987964682067L827.799120174589 337.4733993674184Q827.799120174589 336.131423844583 827.799120174589 334.5977375327712Q827.799120174589 333.0366639653913 827.799120174589 331.8042374648282Q827.799120174589 330.5444237086971 827.799120174589 330.1610021307441L827.799120174589 330.1610021307441Q827.0322770186831 327.64137461848185 825.5807524735756 326.4089481179187Q824.1566151840359 325.1491343617876 822.3216690609754 324.6835510171304Q820.4867229379148 324.1905804169052 818.3779042591734 324.2727421836094Q816.2416983248642 324.3822912058817 814.7080120130523 324.3822912058817ZM893.4737590268172 383.319665188365L893.4737590268172 383.319665188365Q893.4737590268172 375.9798806961226 895.3087051498778 367.70892951456597Q897.1436512729383 359.4379783330093 900.4027346855386 351.4408997071333Q903.6892053537067 343.44382108125734 908.3998133114146 336.3231346335595Q913.1104212691223 329.2024481858617 918.6974214050083 323.69760981667997Q924.2844215408943 318.22015870306626 930.8299756216626 314.93368803489807Q937.3755297024309 311.6746046222979 944.4962161501287 311.6746046222979L944.4962161501287 311.6746046222979Q946.0299024619407 311.6746046222979 949.01511331886 312.3592860114996Q952.0003241757795 313.0165801451333 955.0950840549713 314.08468311228796Q958.1624566785949 315.12539882387455 960.4903734018808 316.6864723912544Q962.7909028695985 318.22015870306626 962.7909028695985 319.7538450148781L962.7909028695985 319.7538450148781L929.4880000988272 323.99886962792874Q925.818107852706 323.99886962792874 922.5590244401059 327.5592128517776Q919.2725537719377 331.1195560756265 916.4790537039947 336.5970071892402Q913.6855536360517 342.101845558422 911.4671859350382 348.921272194871Q909.2762054895927 355.7680860868881 907.6329701555086 362.3136401676565Q905.9897348214245 368.85919424842484 905.1133426432464 374.2544835953343Q904.2643377206361 379.6497729422438 904.2643377206361 382.33372398791454L904.2643377206361 382.33372398791454L904.2643377206361 384.2782191332474Q904.2643377206361 385.42848386710625 904.3464994873405 386.8800084122139Q904.4560485096126 388.30414570175344 904.4560485096126 389.8652192691334L904.4560485096126 389.8652192691334L904.4560485096126 391.59061636992163Q904.4560485096126 391.9740379478746 905.2228916655185 392.7408811037805L905.2228916655185 392.7408811037805L908.4819750781187 395.8356409829723Q909.2762054895927 396.7941949278547 909.6596270675457 396.98590571683116L909.6596270675457 396.98590571683116Q909.8513378565222 396.98590571683116 910.2347594344751 396.98590571683116L910.2347594344751 396.98590571683116L910.8098918014045 396.98590571683116Q915.2192399478636 396.98590571683116 919.3821027942099 394.6579889935453Q923.5175783849884 392.35745952582755 927.0779216088372 389.07098885765936Q930.6382648326862 385.8119054450592 933.6234756896056 382.05985143223387Q936.6086865465251 378.3077974194085 938.7175052252663 375.78816990714614L938.7175052252663 375.78816990714614Q939.8677699591252 374.4461943843108 940.5524513483269 369.92729721557953Q941.2371327375286 365.4084000468482 941.8944268711623 359.5201400997135Q942.5791082603639 353.65926740814683 943.3459514162698 347.0041643051062Q944.1127945721757 340.37644845763367 945.2630593060346 334.87161008845186Q946.4407112954616 329.3941589748382 948.0565593739776 325.9159775176935Q949.6997947080617 322.4651833161169 952.192034964756 322.4651833161169L952.192034964756 322.4651833161169Q952.4111330093006 322.4651833161169 952.98626537623 322.4651833161169L952.98626537623 322.4651833161169L953.369686954183 322.4651833161169Q953.369686954183 323.42373726099925 953.451848720887 327.2579530405289Q953.5613977431594 331.1195560756265 953.6435595098636 336.4052964002637Q953.7531085321359 341.718423980469 953.8352702988401 347.68884569430793Q953.9448193211124 353.65926740814683 953.9448193211124 358.94500773278406Q953.9448193211124 364.2307480574213 954.1365301100889 368.0923510925189Q954.3282408990653 371.95395412761656 954.5199516880418 372.91250807249895L954.5199516880418 372.91250807249895Q954.5199516880418 373.87106201738135 955.4785056329242 375.70600814044195Q956.4370595778066 377.54095426350256 957.5873243116655 379.26635136429087Q958.7649763010925 380.9917484650792 960.1069518239278 382.33372398791454Q961.4489273467632 383.703086766318 962.2157705026691 383.703086766318L962.2157705026691 383.703086766318L994.9435409065109 383.703086766318Q994.9435409065109 385.8119054450592 993.1359820390182 387.34559175687104Q991.3010359159578 388.87927806868294 988.589697614719 390.0569300581098Q985.9057465690482 391.2071947919687 982.61927590088 392.05619971457884Q979.3601924882798 392.932591892757 976.2654326090882 393.42556249298224Q973.1980599854644 393.8911458376394 970.4867216842257 394.08285662661586Q967.8027706385551 394.27456741559234 966.4607951157196 394.27456741559234L966.4607951157196 394.27456741559234Q958.7649763010925 394.27456741559234 953.5613977431594 390.8237732140157Q948.3578191852264 387.34559175687104 943.9210837831993 381.18345925405566L943.9210837831993 381.18345925405566Q941.428843526505 384.2782191332474 938.0602110916327 388.11243491277696Q934.6915786567603 391.9740379478746 930.5287158104138 395.5343811717235Q926.3932402196355 399.0947243955724 921.6826322619277 401.58696465226666Q916.97202430422 404.10659216452893 912.3435781132164 404.68172453145837L912.3435781132164 404.68172453145837Q906.3731563993774 405.4485676873643 902.8128131755286 403.8053323532802Q899.2524699516797 402.1894842747642 897.1436512729383 399.2864351845489Q895.007445338629 396.4107733499017 894.2406021827231 392.2479105035553Q893.4737590268172 388.11243491277696 893.4737590268172 383.319665188365Z " fill="#ffffff" transform="matrix(0.8794468681083006,0,0,0.8794468681083006,0,8.882253093540427)"/></g></svg>